:FULLY-SPECIFIED
:FORCE-ALL-JOINTS-BE-3DOF
:DEGREES
17
root 7.63692 15.8965 -34.3591 7.0605 -4.9559 -5.91183
lfemur -40.2382 -1.09757 -6.36197
ltibia 19.0558 0 0
lfoot -15.7316 16.4528 0
ltoes -11.3895 0 0
rfemur 7.22225 6.7502 31.5708
rtibia 9.41122 0 0
rfoot -19.2228 -1.27235 0
rtoes -7.7208 0 0
lowerback -6.32743 1.37767 2.57917
upperback -1.18802 1.58116 3.0089
thorax 2.30924 0.797685 1.7845
lowerneck -19.9876 -4.89291 -11.6836
upperneck 15.9523 -6.42596 14.9171
head 9.21123 -2.19772 6.25242
lclavicle 3.18999e-15 -8.00292e-15 0
lhumerus -40.1975 -8.57273 90.0545
lradius 29.0012 0 0
lwrist 6.9308 0 0
lhand -7.63492 -23.0469 0
lfingers 7.12502 0 0
lthumb 18.2602 6.11742 0
rclavicle 3.18999e-15 -8.00292e-15 0
rhumerus -41.4384 19.3509 -88.967
rradius 62.6214 0 0
rwrist -34.8513 0 0
rhand -31.3118 -29.4182 0
rfingers 7.12502 0 0
rthumb -4.5842 -59.3484 0
18
root 7.64411 15.8896 -34.2728 7.10465 -5.23344 -6.13824
lfemur -40.2246 -1.54179 -5.63763
ltibia 18.6236 0 0
lfoot -15.999 17.2321 0
ltoes -10.7215 0 0
rfemur 7.79247 6.80411 31.7372
rtibia 8.90837 0 0
rfoot -18.5091 -1.05087 0
rtoes -7.3749 0 0
lowerback -6.39239 1.45306 2.78093
upperback -1.21074 1.66495 3.0662
thorax 2.32311 0.840523 1.73853
lowerneck -19.9846 -4.88045 -11.7495
upperneck 15.9683 -6.38735 14.9004
head 9.21168 -2.18567 6.26398
lclavicle 4.57318e-15 -7.96887e-15 0
lhumerus -40.3162 -8.7583 90.1645
lradius 28.8317 0 0
lwrist 6.94551 0 0
lhand -7.64378 -23.2289 0
lfingers 7.12502 0 0
lthumb 18.2516 5.93512 0
rclavicle 4.57318e-15 -7.96887e-15 0
rhumerus -41.6361 19.4153 -89.2058
rradius 62.7439 0 0
rwrist -34.8455 0 0
rhand -31.3609 -29.325 0
rfingers 7.12502 0 0
rthumb -4.6316 -59.2542 0
19
root 7.63687 15.8945 -34.3294 7.12192 -5.0519 -6.09301
lfemur -40.2639 -1.64834 -5.6802
ltibia 18.69 0 0
lfoot -16.0304 17.2354 0
ltoes -10.5633 0 0
rfemur 7.2685 6.71662 31.7327
rtibia 9.49848 0 0
rfoot -18.6051 -0.965217 0
rtoes -6.83488 0 0
lowerback -6.37702 1.41426 2.71823
upperback -1.22749 1.61871 3.07529
thorax 2.29486 0.816891 1.77833
lowerneck -19.9815 -4.88918 -11.7923
upperneck 15.9658 -6.38906 14.9111
head 9.21241 -2.18829 6.27503
lclavicle 5.37961e-15 -6.95746e-15 0
lhumerus -40.2088 -8.689 90.1427
lradius 28.8481 0 0
lwrist 7.0214 0 0
lhand -7.6207 -23.2962 0
lfingers 7.12502 0 0
lthumb 18.2738 5.86544 0
rclavicle 5.37961e-15 -6.95746e-15 0
rhumerus -41.5682 19.3963 -89.053
rradius 62.7376 0 0
rwrist -34.9099 0 0
rhand -31.4242 -29.2481 0
rfingers 7.12502 0 0
rthumb -4.69277 -59.1761 0
20
root 7.66032 15.8779 -34.1426 7.10672 -5.62199 -6.31197
lfemur -40.1709 -1.49271 -5.3177
ltibia 18.5004 0 0
lfoot -16.0383 17.4971 0
ltoes -10.6242 0 0
rfemur 8.8371 6.95046 31.8064
rtibia 7.81161 0 0
rfoot -17.6502 -1.02886 0
rtoes -8.19703 0 0
lowerback -6.45049 1.53995 2.97402
upperback -1.20045 1.76339 3.08194
thorax 2.37056 0.891137 1.65709
lowerneck -19.9713 -4.85544 -11.7403
upperneck 15.9604 -6.35496 14.8974
head 9.20128 -2.17104 6.26579
lclavicle 3.88618e-15 -9.52648e-15 0
lhumerus -40.5256 -8.89974 90.2311
lradius 28.6698 0 0
lwrist 6.80403 0 0
lhand -7.76994 -23.2541 0
lfingers 7.12502 0 0
lthumb 18.1302 5.92032 0
rclavicle 3.88618e-15 -9.52648e-15 0
rhumerus -41.8426 19.4781 -89.5547
rradius 62.7607 0 0
rwrist -34.687 0 0
rhand -31.2849 -29.4067 0
rfingers 7.12502 0 0
rthumb -4.55822 -59.3373 0
21
root 7.69308 15.856 -33.9039 7.06712 -6.32282 -6.52497
lfemur -40.0474 -0.967681 -5.20015
ltibia 18.5663 0 0
lfoot -15.8887 17.4287 0
ltoes -11.0321 0 0
rfemur 10.883 7.26501 31.822
rtibia 5.56623 0 0
rfoot -16.2982 -1.20007 0
rtoes -10.5212 0 0
lowerback -6.53031 1.68489 3.25785
upperback -1.15192 1.9299 3.06489
thorax 2.47501 0.976904 1.49896
lowerneck -19.9449 -4.80688 -11.6478
upperneck 15.9296 -6.31483 14.901
head 9.17722 -2.14764 6.2559
lclavicle 8.79348e-16 -1.3429e-14 0
lhumerus -40.9326 -9.08476 90.2944
lradius 28.4459 0 0
lwrist 6.44778 0 0
lhand -8.05265 -23.13 0
lfingers 7.12502 0 0
lthumb 17.8581 6.06877 0
rclavicle 8.79348e-16 -1.3429e-14 0
rhumerus -42.1615 19.5707 -90.1885
rradius 62.6971 0 0
rwrist -34.315 0 0
rhand -31.0496 -29.6969 0
rfingers 7.12502 0 0
rthumb -4.33102 -59.632 0
22
root 7.72711 15.8336 -33.6641 7.01237 -7.0306 -6.70977
lfemur -39.9121 -0.291535 -5.22923
ltibia 18.7663 0 0
lfoot -15.6769 17.1884 0
ltoes -11.6058 0 0
rfemur 12.9932 7.60291 31.8049
rtibia 3.21237 0 0
rfoot -14.8365 -1.42844 0
rtoes -13.0718 0 0
lowerback -6.59619 1.82906 3.52826
upperback -1.09506 2.09661 3.03173
thorax 2.58125 1.06284 1.33188
lowerneck -19.9068 -4.75521 -11.5369
upperneck 15.8828 -6.27764 14.9161
head 9.14599 -2.12397 6.246
lclavicle -2.6933e-15 -1.79279e-14 0
lhumerus -41.346 -9.24145 90.3324
lradius 28.2282 0 0
lwrist 6.05578 0 0
lhand -8.3787 -22.9547 0
lfingers 7.12502 0 0
lthumb 17.5443 6.27216 0
rclavicle -2.6933e-15 -1.79279e-14 0
rhumerus -42.4672 19.6547 -90.83
rradius 62.5935 0 0
rwrist -33.9096 0 0
rhand -30.7783 -30.0339 0
rfingers 7.12502 0 0
rthumb -4.06905 -59.9742 0
23
root 7.75439 15.8153 -33.4738 6.95168 -7.6215 -6.84413
lfemur -39.7836 0.317435 -5.30668
ltibia 18.9789 0 0
lfoot -15.4976 16.9347 0
ltoes -12.1643 0 0
rfemur 14.7547 7.90677 31.7806
rtibia 1.20004 0 0
rfoot -13.5526 -1.66357 0
rtoes -15.1133 0 0
lowerback -6.62786 1.95247 3.74377
upperback -1.04301 2.24189 2.99002
thorax 2.66232 1.1376 1.18379
lowerneck -19.8615 -4.71215 -11.4302
upperneck 15.8292 -6.25237 14.9365
head 9.11336 -2.1059 6.23678
lclavicle -5.88416e-15 -2.2286e-14 0
lhumerus -41.6822 -9.36723 90.345
lradius 28.0681 0 0
lwrist 5.73114 0 0
lhand -8.65799 -22.7592 0
lfingers 7.12502 0 0
lthumb 17.2755 6.49184 0
rclavicle -5.88416e-15 -2.2286e-14 0
rhumerus -42.7024 19.711 -91.3544
rradius 62.4966 0 0
rwrist -33.5866 0 0
rhand -30.531 -30.3327 0
rfingers 7.12502 0 0
rthumb -3.83019 -60.2776 0
24
root 7.76688 15.8059 -33.3838 6.89428 -7.97171 -6.90582
lfemur -39.6807 0.640937 -5.33419
ltibia 19.0827 0 0
lfoot -15.4461 16.8257 0
ltoes -12.5268 0 0
rfemur 15.7545 8.11923 31.7745
rtibia -0.0207584 0 0
rfoot -12.7339 -1.85505 0
rtoes -15.9101 0 0
lowerback -6.60504 2.03509 3.86293
upperback -1.00892 2.34411 2.94735
thorax 2.69127 1.18983 1.0826
lowerneck -19.8136 -4.68939 -11.35
upperneck 15.7782 -6.24799 14.9563
head 9.08509 -2.0993 6.22889
lclavicle -7.74565e-15 -2.57661e-14 0
lhumerus -41.8576 -9.45951 90.3318
lradius 28.0172 0 0
lwrist 5.57699 0 0
lhand -8.80041 -22.5745 0
lfingers 7.12502 0 0
lthumb 17.1385 6.68918 0
rclavicle -7.74565e-15 -2.57661e-14 0
rhumerus -42.8096 19.7204 -91.6373
rradius 62.453 0 0
rwrist -33.4619 0 0
rhand -30.3675 -30.5083 0
rfingers 7.12502 0 0
rthumb -3.67235 -60.4564 0
25
root 7.75655 15.8102 -33.4448 6.84941 -7.95741 -6.8726
lfemur -39.622 0.460683 -5.21349
ltibia 18.9562 0 0
lfoot -15.6173 17.0199 0
ltoes -12.5122 0 0
rfemur 15.5794 8.18291 31.8121
rtibia -2.8625e-14 0 0
rfoot -12.6678 -1.95247 0
rtoes -14.7266 0 0
lowerback -6.50745 2.05693 3.84426
upperback -1.00596 2.38165 2.91131
thorax 2.64112 1.20819 1.05626
lowerneck -19.7676 -4.69866 -11.3188
upperneck 15.739 -6.2735 14.9696
head 9.06692 -2.11005 6.223
lclavicle -7.33018e-15 -2.76311e-14 0
lhumerus -41.7886 -9.51569 90.2927
lradius 28.1271 0 0
lwrist 5.69643 0 0
lhand -8.71585 -22.4315 0
lfingers 7.12502 0 0
lthumb 17.2199 6.82554 0
rclavicle -7.33018e-15 -2.76311e-14 0
rhumerus -42.7315 19.6635 -91.5541
rradius 62.5095 0 0
rwrist -33.6512 0 0
rhand -30.3479 -30.4758 0
rfingers 7.12502 0 0
rthumb -3.65339 -60.4242 0
26
root 7.79037 15.7947 -33.2448 6.93622 -8.12441 -6.95554
lfemur -39.7541 1.1865 -5.67326
ltibia 19.5043 0 0
lfoot -14.9845 16.3169 0
ltoes -12.7206 0 0
rfemur 16.4587 8.10217 31.6703
rtibia -0.549681 0 0
rfoot -12.4146 -1.81586 0
rtoes -17.7594 0 0
lowerback -6.74893 2.025 3.911
upperback -0.994749 2.31587 2.98362
thorax 2.78677 1.17663 1.09575
lowerneck -19.8686 -4.66489 -11.3551
upperneck 15.8079 -6.20694 14.943
head 9.09852 -2.07953 6.23224
lclavicle -9.35106e-15 -2.47478e-14 0
lhumerus -42.0441 -9.37996 90.3848
lradius 27.8202 0 0
lwrist 5.29731 0 0
lhand -8.99957 -22.6681 0
lfingers 7.12502 0 0
lthumb 16.9468 6.61205 0
rclavicle -9.35106e-15 -2.47478e-14 0
rhumerus -42.9689 19.8112 -91.8787
rradius 62.2907 0 0
rwrist -33.078 0 0
rhand -30.3096 -30.6417 0
rfingers 7.12502 0 0
rthumb -3.61639 -60.5909 0
27
root 7.83607 15.7762 -32.9881 7.09537 -8.17356 -7.02673
lfemur -40.0265 2.19787 -6.45239
ltibia 20.4032 0 0
lfoot -13.9367 15.2002 0
ltoes -12.8546 0 0
rfemur 17.2484 7.86013 31.429
rtibia -0.703591 0 0
rfoot -12.4225 -1.52921 0
rtoes -21.6763 0 0
lowerback -7.12611 1.92423 3.92465
upperback -0.993119 2.15205 3.11413
thorax 2.99424 1.09599 1.22043
lowerneck -20.049 -4.62596 -11.4464
upperneck 15.9323 -6.10941 14.8916
head 9.15933 -2.03691 6.24873
lclavicle -1.15201e-14 -1.88109e-14 0
lhumerus -42.3374 -9.10273 90.5284
lradius 27.3825 0 0
lwrist 4.75867 0 0
lhand -9.35613 -23.0885 0
lfingers 7.12502 0 0
lthumb 16.6035 6.22025 0
rclavicle -1.15201e-14 -1.88109e-14 0
rhumerus -43.2628 20.0274 -92.2089
rradius 61.9446 0 0
rwrist -32.2556 0 0
rhand -30.3263 -30.8037 0
rfingers 7.12502 0 0
rthumb -3.63253 -60.7526 0
28
root 7.88325 15.758 -32.7294 7.2815 -8.14057 -7.08396
lfemur -40.3448 3.26037 -7.33331
ltibia 21.3814 0 0
lfoot -12.8071 13.9626 0
ltoes -12.9682 0 0
rfemur 17.8764 7.54658 31.1607
rtibia -0.593655 0 0
rfoot -12.6249 -1.17652 0
rtoes -25.961 0 0
lowerback -7.54329 1.79283 3.90954
upperback -0.998137 1.94652 3.26382
thorax 3.21536 0.994398 1.37842
lowerneck -20.2559 -4.58788 -11.5636
upperneck 16.0793 -6.00382 14.8343
head 9.23195 -1.99152 6.26968
lclavicle -1.36063e-14 -1.1455e-14 0
lhumerus -42.6159 -8.76715 90.681
lradius 26.9156 0 0
lwrist 4.19676 0 0
lhand -9.72788 -23.5942 0
lfingers 7.12502 0 0
lthumb 16.2456 5.7441 0
rclavicle -1.36063e-14 -1.1455e-14 0
rhumerus -43.5554 20.261 -92.5028
rradius 61.5706 0 0
rwrist -31.3749 0 0
rhand -30.3787 -30.9524 0
rfingers 7.12502 0 0
rthumb -3.68315 -60.9004 0
29
root 7.92155 15.7438 -32.5235 7.44926 -8.06115 -7.12506
lfemur -40.6142 4.13958 -8.09844
ltibia 22.1671 0 0
lfoot -11.929 12.897 0
ltoes -13.1153 0 0
rfemur 18.2707 7.25128 30.9378
rtibia -0.351796 0 0
rfoot -12.9552 -0.841772 0
rtoes -30.0973 0 0
lowerback -7.90477 1.66901 3.89002
upperback -1.00687 1.7556 3.39366
thorax 3.40198 0.899992 1.51787
lowerneck -20.4361 -4.55669 -11.6782
upperneck 16.2162 -5.91309 14.79
head 9.29899 -1.95266 6.29225
lclavicle -1.53787e-14 -4.31436e-15 0
lhumerus -42.8273 -8.45637 90.8003
lradius 26.5214 0 0
lwrist 3.72785 0 0
lhand -10.0572 -24.0867 0
lfingers 7.12502 0 0
lthumb 15.9286 5.2776 0
rclavicle -1.53787e-14 -4.31436e-15 0
rhumerus -43.789 20.4605 -92.7184
rradius 61.2677 0 0
rwrist -30.6266 0 0
rhand -30.4475 -31.0786 0
rfingers 7.12502 0 0
rthumb -3.7496 -61.0254 0
30
root 7.94057 15.7372 -32.4251 7.55331 -7.97099 -7.14784
lfemur -40.74 4.60107 -8.53024
ltibia 22.4888 0 0
lfoot -11.6354 12.2964 0
ltoes -13.3496 0 0
rfemur 18.3592 7.06404 30.8328
rtibia -0.109936 0 0
rfoot -13.3466 -0.60897 0
rtoes -33.5692 0 0
lowerback -8.11484 1.59098 3.89042
upperback -1.01638 1.63563 3.46466
thorax 3.50593 0.840909 1.58689
lowerneck -20.5366 -4.5384 -11.7613
upperneck 16.3099 -5.86012 14.7774
head 9.34303 -1.92963 6.31365
lclavicle -1.66063e-14 9.76442e-16 0
lhumerus -42.919 -8.25354 90.8435
lradius 26.3017 0 0
lwrist 3.46817 0 0
lhand -10.2864 -24.4676 0
lfingers 7.12502 0 0
lthumb 15.7079 4.91474 0
rclavicle -1.66063e-14 9.76442e-16 0
rhumerus -43.9058 20.5749 -92.8138
rradius 61.1354 0 0
rwrist -30.2016 0 0
rhand -30.5134 -31.1731 0
rfingers 7.12502 0 0
rthumb -3.81321 -61.1187 0
